<svg width="25" height="44" viewBox="0 0 25 44" fill="none" xmlns="http://www.w3.org/2000/svg">
<g style="mix-blend-mode:multiply">
<path fill-rule="evenodd" clip-rule="evenodd" d="M6.23188 2.0214L6.70046 2.01923C7.41225 2.01595 8.11576 2.1782 8.758 2.49407C9.39888 2.80927 9.96235 3.26941 10.4057 3.84044C10.4067 3.84167 10.4076 3.8429 10.4086 3.84414L22.0293 19.0009C22.683 19.8502 23.0392 20.9012 23.0392 21.9847C23.0392 23.0682 22.683 24.1192 22.0293 24.9685L22.0263 24.9724L10.4029 40.1519C10.4027 40.1521 10.4025 40.1523 10.4024 40.1525C9.62746 41.162 8.49432 41.8132 7.25321 41.9656C6.01194 42.1181 4.76137 41.7596 3.77646 40.9672C2.79127 40.1745 2.15216 39.0118 2.00246 37.734C1.85279 36.4564 2.20495 35.1713 2.97962 34.1613C2.97985 34.161 2.98008 34.1607 2.98031 34.1604L12.3331 22.0072L2.97744 9.83408C2.42782 9.12135 2.0848 8.26369 1.98859 7.35921C1.89238 6.45471 2.047 5.54102 2.43426 4.72303C2.8215 3.90511 3.42536 3.21655 4.17571 2.73537C4.79958 2.3353 5.50399 2.09187 6.23188 2.0214ZM6.67748 0C5.42354 -0.000495911 4.19483 0.360695 3.13209 1.04219C2.06935 1.72369 1.21558 2.69794 0.668579 3.85332C0.121578 5.00871 -0.0965271 6.2985 0.0392487 7.57494C0.175024 8.85138 0.65919 10.0628 1.43628 11.0706L9.84101 22.0063L1.43628 32.9277C0.341067 34.3549 -0.155607 36.1691 0.0555222 37.9713C0.266651 39.7735 1.16829 41.4159 2.56208 42.5374C3.95587 43.6589 5.72765 44.1674 7.48765 43.9513C9.24764 43.7351 10.8517 42.8118 11.9469 41.3846L23.5716 26.2035C24.4968 25.0014 25 23.5153 25 21.9847C25 20.4541 24.4968 18.968 23.5716 17.7658L11.9469 2.60399C11.3192 1.79388 10.52 1.14031 9.60963 0.692562C8.69927 0.24482 7.7015 0.0145912 6.69159 0.0192528L6.67748 0Z" fill="#FE35F1"/>
</g>
</svg>
