<svg width="32" height="33" viewBox="0 0 32 33" fill="none" xmlns="http://www.w3.org/2000/svg">
<path fill-rule="evenodd" clip-rule="evenodd" d="M16.3738 6.87135C19.6445 3.69848 24.9438 3.69913 28.2137 6.8733C31.4843 10.0481 31.4843 15.1937 28.2137 18.3685L17.1744 29.0846C16.1568 30.0725 14.507 30.0725 13.4894 29.0846L2.44933 18.3678C-0.993223 15.0187 -0.805511 9.48651 3.00385 6.37945L3.00444 6.37898C6.39446 3.61826 11.4015 4.06095 14.4709 7.04053L14.895 7.45219C15.1364 7.68646 15.5275 7.68647 15.7688 7.4522L15.7727 7.44843L16.3718 6.8733C16.3725 6.87265 16.3731 6.872 16.3738 6.87135ZM26.8081 8.23778C24.3139 5.81655 20.2717 5.81655 17.7774 8.23778L17.7735 8.24155L17.1744 8.81668C17.1737 8.81738 17.173 8.81808 17.1723 8.81878C16.1545 9.80453 14.5063 9.80383 13.4894 8.81668L13.0653 8.40502C10.6616 6.07169 6.81627 5.79388 4.28244 7.85701C1.373 10.2302 1.22948 14.4491 3.85649 17.0048L14.895 27.7201C15.1364 27.9544 15.5275 27.9544 15.7688 27.7201L26.8081 17.0041C29.3024 14.5828 29.3024 10.659 26.8081 8.23778Z" fill="black"/>
</svg>
