<svg width="32" height="33" viewBox="0 0 32 33" fill="none" xmlns="http://www.w3.org/2000/svg">
<path d="M8.75995 32.4921H3.49439C2.92234 32.4921 2.46057 32.0149 2.46057 31.4238V13.7607C2.46057 13.1696 2.92234 12.6924 3.49439 12.6924C4.06643 12.6924 4.5282 13.1696 4.5282 13.7607V30.3555H7.72613V31.4238C7.72613 32.0149 8.1879 32.4921 8.75995 32.4921Z" fill="black"/>
<path d="M29.5396 13.7607V31.4238C29.5396 32.0149 29.0779 32.4921 28.5058 32.4921H14.0255C14.5976 32.4921 15.0593 32.0149 15.0593 31.4238V30.3555H27.472V13.7607C27.472 13.1696 27.9338 12.6924 28.5058 12.6924C29.0779 12.6924 29.5396 13.1696 29.5396 13.7607Z" fill="black"/>
<path d="M15.0591 19.1806V30.3554H12.9915V20.249H9.79358V30.3554H7.72595V19.1806C7.72595 18.5966 8.18772 18.1123 8.75977 18.1123H14.0253C14.5974 18.1123 15.0591 18.5966 15.0591 19.1806Z" fill="black"/>
<path d="M15.0591 30.355V31.4233C15.0591 32.0145 14.5974 32.4916 14.0253 32.4916H8.75977C8.18772 32.4916 7.72595 32.0145 7.72595 31.4233V30.355H15.0591Z" fill="black"/>
<path d="M23.2746 24.3376H18.0366C17.4646 24.3376 17.0028 23.8605 17.0028 23.2693V19.2168C17.0028 18.6256 17.4646 18.1484 18.0366 18.1484H23.2746C23.8467 18.1484 24.3084 18.6256 24.3084 19.2168V23.2693C24.3084 23.8533 23.8467 24.3376 23.2746 24.3376ZM19.0704 22.201H22.2408V20.2851H19.0704V22.201Z" fill="black"/>
<path d="M15.9966 12.1869C14.8869 12.1869 13.7773 11.7524 12.9985 10.9049C12.9158 10.9974 12.8331 11.0758 12.7504 11.1541C12.0198 11.8236 11.048 12.1869 10.0073 12.1869C8.90458 12.1869 7.78806 11.7524 7.01615 10.9049C6.23734 11.7524 5.12772 12.1797 4.01809 12.1797C2.98428 12.1797 2.01249 11.8165 1.28193 11.147C0.696102 10.6128 0 9.64423 0 8.04885C0 7.81382 0.0758076 7.57879 0.220542 7.39361L5.12082 0.905277C5.3138 0.648877 5.61706 0.492188 5.9341 0.492188H26.0866C26.4036 0.492188 26.7069 0.641755 26.8999 0.905277L31.7795 7.39361C31.9173 7.57879 32 7.81382 32 8.04885C32 9.64423 31.3039 10.6128 30.7181 11.147C29.9875 11.8094 29.0157 12.1797 27.9819 12.1797C26.8723 12.1797 25.7627 11.7453 24.9839 10.9049C24.2119 11.7524 23.0954 12.1869 21.9927 12.1869C20.9589 12.1869 19.9802 11.8165 19.2496 11.1541C19.1669 11.0829 19.0842 10.9974 19.0015 10.9049C18.2158 11.7524 17.1062 12.1869 15.9966 12.1869ZM14.0392 8.04885C14.0392 9.52315 15.0937 10.0502 15.9966 10.0502C16.8994 10.0502 17.9539 9.52315 17.9539 8.04885C17.9539 7.45771 18.4157 6.98052 18.9877 6.98052C19.5598 6.98052 20.0215 7.45771 20.0215 8.04885C20.0215 8.68985 20.2214 9.19552 20.6074 9.54451C20.9589 9.86501 21.4551 10.0431 21.9789 10.0431C22.8818 10.0431 23.9363 9.51602 23.9363 8.04172C23.9363 7.45058 24.398 6.97339 24.9701 6.97339C25.5421 6.97339 26.0039 7.45058 26.0039 8.04172C26.0039 9.51602 27.0584 10.0359 27.9681 10.0359C28.4919 10.0359 28.995 9.85789 29.3397 9.53739C29.6567 9.2525 29.8428 8.86078 29.9048 8.37647L25.5766 2.62172H6.43722L2.0883 8.38359C2.15033 8.86791 2.33641 9.2525 2.65345 9.54451C2.99806 9.85788 3.50118 10.0431 4.02498 10.0431C4.93474 10.0431 5.98923 9.52315 5.98923 8.04885C5.98923 7.45771 6.451 6.98052 7.02305 6.98052C7.59509 6.98052 8.05686 7.45771 8.05686 8.04885C8.05686 9.52315 9.11135 10.0502 10.0142 10.0502C10.9171 10.0502 11.9716 9.53027 11.9716 8.04885C11.9716 7.45771 12.4333 6.98052 13.0054 6.98052C13.5774 6.98052 14.0392 7.45771 14.0392 8.04885Z" fill="black"/>
</svg>
