<svg width="32" height="33" viewBox="0 0 32 33" fill="none" xmlns="http://www.w3.org/2000/svg">
<path d="M22.3971 14.3887C18.5708 14.3887 15.4662 17.5001 15.4662 21.3196C15.4662 25.1458 18.5708 28.2573 22.3971 28.2573C26.2166 28.2573 29.328 25.1458 29.328 21.3196C29.328 17.5001 26.2166 14.3887 22.3971 14.3887ZM22.3971 26.2148C19.701 26.2148 17.5087 24.0157 17.5087 21.3196C17.5087 18.6235 19.701 16.4312 22.3971 16.4312C25.0932 16.4312 27.2855 18.6235 27.2855 21.3196C27.2855 24.0157 25.0932 26.2148 22.3971 26.2148Z" fill="black"/>
<path d="M24.1946 8.08326V13.0329C24.1946 13.598 23.7384 14.0542 23.1733 14.0542C22.6151 14.0542 22.1521 13.598 22.1521 13.0329V9.10451H18.959V7.06201H23.1733C23.7384 7.06201 24.1946 7.51817 24.1946 8.08326Z" fill="black"/>
<path d="M24.1946 29.3462V31.4704C24.1946 32.0355 23.7385 32.4917 23.1734 32.4917H3.68788C3.12278 32.4917 2.66663 32.0355 2.66663 31.4704V8.08375C2.66663 7.51866 3.12278 7.0625 3.68788 7.0625H7.81375V9.105H4.70913V30.4492H22.1521V29.3462C22.1521 28.7811 22.6151 28.325 23.1734 28.325C23.7385 28.325 24.1946 28.7811 24.1946 29.3462Z" fill="black"/>
<path d="M16.9166 7.06201H9.85632V9.10451H16.9166V7.06201Z" fill="black"/>
<path d="M9.85622 7.06201H7.81372V9.10451H9.85622V7.06201Z" fill="black"/>
<path d="M9.85622 9.10449V10.6432C9.85622 11.2083 9.40006 11.6644 8.83497 11.6644C8.26988 11.6644 7.81372 11.2083 7.81372 10.6432V9.10449H9.85622Z" fill="black"/>
<path d="M18.959 6.30652V7.06223H16.9165V6.30652C16.9165 4.26401 15.3574 2.53469 13.5055 2.53469H13.4238C11.5243 2.53469 9.85622 4.29806 9.85622 6.30652V7.06223H7.81372V6.30652C7.81372 3.15426 10.3873 0.492188 13.4238 0.492188H13.5055C16.5148 0.492188 18.959 3.09979 18.959 6.30652Z" fill="black"/>
<path d="M18.959 7.06201H16.9165V9.10451H18.959V7.06201Z" fill="black"/>
<path d="M18.959 9.10449V10.6432C18.959 11.2083 18.5028 11.6644 17.9378 11.6644C17.3727 11.6644 16.9165 11.2083 16.9165 10.6432V9.10449H18.959Z" fill="black"/>
<path d="M24.9503 23.8107C24.7869 24.0558 24.5895 24.2737 24.3512 24.4575C24.0789 24.6618 23.7589 24.8184 23.4184 24.9137C23.1733 24.9818 22.8874 25.0158 22.5946 25.0158C22.5334 25.0158 22.4653 25.0158 22.3972 25.0022H22.3904C21.8525 24.9818 21.2874 24.8524 20.8109 24.6209C20.3002 24.3826 20.0824 23.7699 20.3275 23.2593C20.5657 22.7554 21.1785 22.5376 21.6891 22.7759C22.0772 22.9665 22.6219 23.0142 22.867 22.9461C23.0304 22.9052 23.1597 22.8099 23.2414 22.6942C23.2755 22.6397 23.3095 22.558 23.2891 22.4763C23.2891 22.4763 23.1257 22.3401 22.3972 22.3333C21.7232 22.3129 20.0007 22.2584 19.5581 20.6993C19.3811 20.073 19.4968 19.3853 19.8645 18.8202C20.0279 18.5683 20.2322 18.3504 20.4704 18.1734C20.7428 17.9624 21.056 17.8058 21.3964 17.7105C21.73 17.6151 22.0772 17.5879 22.4176 17.622C22.9419 17.6764 23.4389 17.8807 23.827 18.2211C24.2559 18.5887 24.2967 19.2355 23.9291 19.6645C23.5546 20.0866 22.9146 20.1274 22.4857 19.7598C22.3836 19.6713 22.1861 19.61 21.9478 19.6781C21.7913 19.7257 21.6551 19.8142 21.5734 19.93C21.5394 19.9844 21.5053 20.0661 21.5257 20.1478C21.5393 20.1615 21.7027 20.2704 22.438 20.2908C24.004 20.3044 24.9571 20.8559 25.2567 21.9248C25.4337 22.5512 25.318 23.2388 24.9503 23.8107Z" fill="black"/>
<path d="M22.4176 17.6219C22.0772 17.5878 21.73 17.6151 21.3964 17.7104C21.0559 17.8057 20.7428 17.9623 20.4704 18.1733C20.3683 17.6559 20.6815 17.1385 21.1921 16.9955C21.7164 16.8457 22.2474 17.1249 22.4176 17.6219Z" fill="black"/>
<path d="M24.3512 24.457C24.4465 24.9745 24.1401 25.4851 23.6227 25.6281C23.5274 25.6553 23.4389 25.6689 23.3436 25.6689C22.9283 25.6689 22.547 25.4102 22.3972 25.0017C22.4653 25.0153 22.5334 25.0153 22.5947 25.0153C22.8874 25.0153 23.1734 24.9813 23.4185 24.9132C23.7589 24.8179 24.0789 24.6613 24.3512 24.457Z" fill="black"/>
</svg>
