<svg width="32" height="32" viewBox="0 0 32 32" fill="none" xmlns="http://www.w3.org/2000/svg">
<path d="M24.7667 4.96136C24.7667 5.53168 24.2676 5.99206 23.6493 5.99206H22.6511V3.93066H23.6493C23.8877 3.93066 24.1037 3.99938 24.2825 4.10932C24.573 4.30172 24.7667 4.61092 24.7667 4.96136Z" fill="black"/>
<path d="M28.8937 5.70329C28.7075 5.97815 28.4691 6.21864 28.186 6.41791L24.886 9.04962V6.32171L26.7856 4.81002C27.2474 4.48707 27.2996 3.75871 26.9494 3.29833C26.793 3.09906 26.577 2.97538 26.3237 2.93415C26.0779 2.8998 25.8395 2.96164 25.6384 3.09906L24.886 3.68312V3.37392C24.886 2.67991 24.6476 2.02713 24.2379 1.49117L24.2454 1.4843C24.9754 0.975827 25.8172 0.783425 26.6589 0.900238C27.5156 1.01705 28.2605 1.44994 28.7671 2.10272C29.6088 3.19526 29.6163 4.66572 28.8937 5.70329Z" fill="black"/>
<path d="M30.9794 19.1366C31.4338 21.0399 29.6907 22.2424 29.0351 22.7028C28.9755 22.7509 27.0834 24.132 24.8486 25.3895C24.8784 25.252 24.8859 25.1146 24.8859 24.9772V22.9158C26.4502 21.9607 27.6496 21.0811 27.6645 21.0674C28.7893 20.2909 28.8712 19.8924 28.7967 19.5763C28.7297 19.2946 28.5435 19.1297 28.3945 19.0472C28.2157 18.9442 27.9922 18.8961 27.7687 18.9167L24.8859 20.6826V18.2089L26.7482 17.0683L29.1692 15.5841C29.7503 15.1787 29.929 14.6633 29.6311 14.0999C29.415 13.7632 28.9606 13.4334 28.4168 13.667L24.8859 15.8795V12.4233L28.6031 9.55794C28.6254 9.54419 28.6403 9.52358 28.6627 9.50984C29.0798 9.23498 29.1469 8.50662 28.8042 8.04624C28.6552 7.8401 28.4392 7.70955 28.1859 7.66832C27.9475 7.62709 27.7017 7.68207 27.5006 7.81262L24.8859 9.67475V9.04945L28.1859 6.41774C28.469 6.21847 28.7074 5.97798 28.8936 5.70312C29.6087 5.88865 30.227 6.30093 30.6591 6.88499C31.6722 8.273 31.3742 10.2176 30.011 11.1589L29.4374 11.6056C30.3015 11.7774 31.0911 12.3065 31.6051 13.1379C32.4096 14.6565 31.9627 16.2162 30.4654 17.2676L29.9737 17.5699C30.4803 17.9753 30.8304 18.5181 30.9794 19.1366Z" fill="black"/>
<path d="M19.6267 28.3033C17.5335 29.334 11.8944 32.0001 9.42124 32.0001C9.3095 32.0001 9.19776 31.9932 9.10092 31.9795C4.55686 31.4435 2.33698 29.3272 1.27174 27.6437C-0.195767 25.3349 -0.4118 22.2909 0.720489 19.7004C1.81553 17.1924 1.51756 13.6056 1.27918 10.7265C0.996112 7.30457 0.794981 4.8309 2.70944 4.15064C3.6853 3.80707 4.64625 3.88953 5.48802 4.39113C6.07651 4.74844 6.58307 5.30502 7.00023 5.99215V15.2409C6.814 12.0183 5.84559 7.06408 4.27379 6.12271C4.10246 6.02651 3.90133 5.94405 3.55121 6.06086C3.17875 6.5556 3.37243 8.96056 3.50652 10.5685C3.76724 13.6605 4.08011 17.5154 2.79139 20.47C1.91982 22.4833 2.06881 24.8333 3.19365 26.6061C4.36319 28.4408 6.50113 29.5951 9.38399 29.9387C10.0917 30.0143 12.2073 29.2997 14.5836 28.3033H19.6267Z" fill="black"/>
<path d="M24.8859 3.37382V24.9772C24.8859 25.1147 24.8785 25.2521 24.8487 25.3895V25.3964C24.6178 27.0112 23.0609 28.303 21.2358 28.303H10.5535C8.59438 28.303 7.00024 26.8119 7.00024 24.9772V23.335C7.00024 23.9053 7.49935 24.3657 8.11763 24.3657H9.23502V24.9772C9.23502 25.6781 9.82351 26.2416 10.5535 26.2416H21.2358C21.9882 26.2416 22.6512 25.6506 22.6512 24.9772V24.3657H23.6494C24.2676 24.3657 24.7667 23.9053 24.7667 23.335C24.7667 23.2251 24.7518 23.122 24.7071 23.0258C24.5731 22.6066 24.1485 22.3043 23.6494 22.3043H22.6512V5.99179H23.6494C24.2676 5.99179 24.7667 5.53141 24.7667 4.96109C24.7667 4.61066 24.5731 4.30145 24.2825 4.10905C24.1038 3.99911 23.8877 3.9304 23.6494 3.9304H22.6512V3.37382C22.6512 2.68669 21.9733 2.0614 21.2358 2.0614H10.5535C9.83841 2.0614 9.23502 2.6592 9.23502 3.37382V3.9304H8.11763C7.49935 3.9304 7.00024 4.39765 7.00024 4.96109V3.37382C7.00024 1.51169 8.59438 0 10.5535 0H21.2358C22.4649 0 23.5749 0.597804 24.2379 1.49108C24.6476 2.02704 24.8859 2.67982 24.8859 3.37382Z" fill="black"/>
<path d="M9.23502 5.99164V22.3041H8.11763C7.49935 22.3041 7.00024 22.7714 7.00024 23.3348V4.96094C7.00024 5.53126 7.49935 5.99164 8.11763 5.99164H9.23502Z" fill="black"/>
<path d="M9.23503 3.93066V5.99206H8.11763C7.49935 5.99206 7.00024 5.53168 7.00024 4.96136C7.00024 4.39791 7.49935 3.93066 8.11763 3.93066H9.23503Z" fill="black"/>
<path d="M22.6511 3.93066H9.23499V5.99206H22.6511V3.93066Z" fill="black"/>
<path d="M9.23503 22.3047V24.3661H8.11763C7.49935 24.3661 7.00024 23.9057 7.00024 23.3354C7.00024 22.7719 7.49935 22.3047 8.11763 22.3047H9.23503Z" fill="black"/>
<path d="M22.6511 22.3047H9.23499V24.3661H22.6511V22.3047Z" fill="black"/>
<path d="M24.7667 23.3354C24.7667 23.9057 24.2676 24.3661 23.6493 24.3661H22.6511V22.3047H23.6493C24.1484 22.3047 24.573 22.607 24.7071 23.0262C24.7518 23.1224 24.7667 23.2254 24.7667 23.3354Z" fill="black"/>
</svg>
