<svg width="32" height="33" viewBox="0 0 32 33" fill="none" xmlns="http://www.w3.org/2000/svg">
<path d="M15.001 9.43293V7.72656C12.8913 8.04885 11.0564 9.24509 9.87398 10.9258L11.1454 11.6593C11.4241 11.8215 11.61 12.0805 11.6871 12.3692C12.4484 11.2283 13.6268 10.386 15.001 10.0834C15.0603 10.0696 15.1196 10.0577 15.1789 10.0459C15.0643 9.86793 15.001 9.65834 15.001 9.43293ZM21.4192 9.72359C20.2644 8.63808 18.8487 7.95197 17.3183 7.72656V9.43293C17.3183 9.65834 17.2531 9.86793 17.1404 10.0459C17.1997 10.0577 17.259 10.0696 17.3183 10.0815C18.2516 10.2871 19.1157 10.7379 19.8314 11.4102C20.1399 11.7008 20.4088 12.0172 20.6322 12.3593C20.7093 12.0745 20.8952 11.8195 21.172 11.6593L22.4533 10.9198C22.1527 10.4888 21.8067 10.0874 21.4192 9.72359ZM23.4795 13.0039L22.3307 13.6662C22.1488 13.771 21.9491 13.8205 21.7533 13.8205C21.5912 13.8205 21.431 13.7868 21.2847 13.7216C21.4429 14.2317 21.524 14.7695 21.524 15.3212C21.524 16.3138 21.2511 17.2826 20.735 18.123C19.5645 20.0271 18.7934 22.1862 18.4315 24.551H13.8621C13.4765 22.1763 12.6975 19.9974 11.5448 18.0597C11.0307 17.1956 10.7717 16.205 10.7954 15.1927C10.8072 14.6825 10.8923 14.1882 11.0406 13.7196C10.8923 13.7868 10.7301 13.8205 10.566 13.8205C10.3683 13.8205 10.1706 13.771 9.98668 13.6662L8.8379 13.0039C8.62238 13.682 8.49781 14.3978 8.48001 15.1373C8.45233 16.3316 8.69751 17.5041 9.19776 18.5718L9.98668 18.117C10.5423 17.7967 11.2501 17.9865 11.5705 18.5421C11.8888 19.0958 11.699 19.8036 11.1454 20.1239L10.2793 20.6242C10.9891 22.1526 11.4538 23.8333 11.6772 25.6385L11.701 25.8402C11.7089 25.9193 11.7188 25.9964 11.7267 26.0755L11.8156 26.8683H20.5037L20.6026 25.8659C20.6045 25.852 20.6045 25.8362 20.6065 25.8224C20.7943 23.9262 21.2669 22.1823 22.0183 20.6123L21.172 20.1239C20.6184 19.8036 20.4286 19.0958 20.7489 18.5421C21.0692 17.9865 21.777 17.7967 22.3307 18.117L23.1196 18.5718C23.5941 17.5594 23.8413 16.4502 23.8413 15.3212C23.8413 14.5303 23.7167 13.7473 23.4795 13.0039Z" fill="#FE35F1"/>
<path d="M23.1193 18.5728C22.9967 18.8338 22.8603 19.0889 22.7081 19.336C22.455 19.7473 22.2236 20.1744 22.018 20.6133L21.1717 20.125C20.6181 19.8046 20.4283 19.0968 20.7486 18.5432C21.0689 17.9875 21.7768 17.7977 22.3304 18.118L23.1193 18.5728Z" fill="#1232A1"/>
<path d="M23.4792 13.0044L22.3304 13.6668C22.1485 13.7716 21.9488 13.821 21.7531 13.821C21.5909 13.821 21.4308 13.7874 21.2845 13.7222C21.1342 13.2378 20.9167 12.781 20.632 12.3599C20.7091 12.0751 20.8949 11.8201 21.1717 11.6599L22.453 10.9204C22.8979 11.561 23.2459 12.263 23.4792 13.0044Z" fill="#1232A1"/>
<path d="M11.6871 12.3692V12.3712C11.4123 12.7844 11.1928 13.2392 11.0406 13.7196C10.8923 13.7869 10.7301 13.8205 10.566 13.8205C10.3683 13.8205 10.1706 13.771 9.98667 13.6663L8.83789 13.0039C9.07714 12.2565 9.42909 11.5565 9.87397 10.9258L11.1453 11.6593C11.4241 11.8215 11.61 12.0805 11.6871 12.3692Z" fill="#1232A1"/>
<path d="M11.1455 20.125L10.2794 20.6252C10.06 20.1507 9.81873 19.69 9.55378 19.2451C9.42328 19.0256 9.30465 18.8022 9.19788 18.5728L9.9868 18.118C10.5424 17.7977 11.2503 17.9875 11.5706 18.5432C11.8889 19.0968 11.6991 19.8046 11.1455 20.125Z" fill="#1232A1"/>
<path d="M17.1405 10.0464C16.9369 10.3746 16.573 10.5921 16.1598 10.5921C15.7446 10.5921 15.3808 10.3746 15.1791 10.0464C15.3887 10.0068 15.6002 9.98111 15.8158 9.96727C16.2666 9.93959 16.7095 9.9653 17.1405 10.0464Z" fill="#12F2AA"/>
<path d="M17.318 1.64888V7.72696C16.7801 7.64391 16.2305 7.62019 15.6709 7.65578C15.4455 7.66962 15.2221 7.69334 15.0006 7.72696V1.64888C15.0006 1.01023 15.5186 0.492188 16.1593 0.492188C16.7979 0.492188 17.318 1.01023 17.318 1.64888Z" fill="#12F2AA"/>
<path d="M17.318 7.72782V9.43419C17.318 9.6596 17.2527 9.86919 17.14 10.0471C16.709 9.96607 16.2661 9.94037 15.8152 9.96805C15.5997 9.98189 15.3882 10.0076 15.1786 10.0471C15.0639 9.86919 15.0006 9.6596 15.0006 9.43419V7.72782C15.2221 7.69421 15.4455 7.67048 15.6709 7.65664C16.2305 7.62105 16.7801 7.64478 17.318 7.72782Z" fill="#1232A1"/>
<path d="M9.87382 10.9262C9.42894 11.5569 9.07699 12.2569 8.83774 13.0043L3.24607 9.77344C2.69243 9.4551 2.50262 8.74527 2.82096 8.19164C3.14127 7.638 3.85111 7.44819 4.40474 7.7685L9.87382 10.9262Z" fill="#12F2AA"/>
<path d="M11.5703 13.2416C11.4438 13.461 11.2559 13.6232 11.0404 13.7201C11.1927 13.2396 11.4121 12.7848 11.687 12.3716C11.7601 12.6563 11.7285 12.9667 11.5703 13.2416Z" fill="#12F2AA"/>
<path d="M29.4962 23.5925C29.2826 23.9642 28.8931 24.1718 28.4917 24.1718C28.296 24.1718 28.0963 24.1224 27.9144 24.0156L22.0182 20.6128C22.2238 20.1738 22.4552 19.7468 22.7082 19.3355C22.8605 19.0883 22.9969 18.8333 23.1195 18.5723L29.073 22.0107C29.6267 22.331 29.8165 23.0389 29.4962 23.5925Z" fill="#12F2AA"/>
<path d="M10.2792 20.6247L4.40474 24.0156C4.22085 24.1224 4.02313 24.1718 3.8254 24.1718C3.426 24.1718 3.03648 23.9642 2.82096 23.5925C2.50262 23.0389 2.69243 22.331 3.24607 22.0107L9.1976 18.5723C9.30437 18.8016 9.42301 19.0251 9.5535 19.2445C9.81846 19.6894 10.0597 20.1501 10.2792 20.6247Z" fill="#12F2AA"/>
<path d="M21.2847 13.7222C21.0672 13.6273 20.8773 13.4632 20.7488 13.2417C20.5887 12.9629 20.5551 12.6466 20.6322 12.3599C20.9169 12.781 21.1344 13.2378 21.2847 13.7222Z" fill="#12F2AA"/>
<path d="M29.073 9.77344L23.4793 13.0043C23.246 12.2628 22.898 11.5609 22.4531 10.9202L27.9143 7.7685C28.4679 7.44819 29.1758 7.638 29.4961 8.19164C29.8164 8.74527 29.6266 9.4551 29.073 9.77344Z" fill="#12F2AA"/>
<path d="M16.1597 32.4919C13.9115 32.4919 12.0391 30.7341 11.8948 28.4919L11.784 26.7579C11.7662 26.4633 11.7385 26.1548 11.703 25.8404L11.5566 24.5513H20.7331L20.6085 25.8226C20.5887 26.0263 20.5709 26.23 20.5571 26.4356L20.4246 28.4919C20.2803 30.7341 18.4078 32.4919 16.1597 32.4919ZM14.1113 26.8686L14.2062 28.3436C14.2714 29.3718 15.1295 30.1766 16.1597 30.1766C17.1898 30.1766 18.046 29.3718 18.1132 28.3456L18.2081 26.8706H14.1113V26.8686Z" fill="#FE35F1"/>
</svg>
