<svg width="32" height="33" viewBox="0 0 32 33" fill="none" xmlns="http://www.w3.org/2000/svg">
<g clip-path="url(#clip0)">
<path d="M7.8447 13.6641C7.8447 13.6738 7.8447 13.6854 7.84659 13.6951L6.24242 5.75509C6.04735 4.79061 5.20644 4.09094 4.24053 4.09094H1.10985C0.498106 4.09094 0 3.58454 0 2.95831C0 2.33401 0.498106 1.82568 1.10985 1.82568H4.24053C6.25379 1.82568 8.00947 3.28689 8.41667 5.29894L8.72917 6.84712H7.85985C7.24811 6.84712 6.75 7.35352 6.75 7.97975C6.75 8.60405 7.24811 9.11044 7.85985 9.11044H9.18561L9.87689 12.5315H8.95265C8.34091 12.5315 7.8447 13.0379 7.8447 13.6641Z" fill="#12F2AA"/>
<path d="M9.01132 19.362C9.01321 19.4393 9.02079 19.5147 9.03594 19.5882L7.92419 14.0854C8.08707 14.5029 8.4867 14.7967 8.9526 14.7967H10.3333L11.0227 18.2062L10.106 18.2178C9.49427 18.2236 9.00374 18.7377 9.01132 19.362Z" fill="#12F2AA"/>
<path d="M28.8712 23.6125C28.8712 24.2387 28.375 24.7451 27.7614 24.7451H14.1383C11.8125 24.7451 9.76518 23.0616 9.26897 20.7423L9.03601 19.5884C9.14397 20.0986 9.58904 20.4813 10.1193 20.4813H10.1326L11.4887 20.4639C11.8277 21.641 12.9148 22.4818 14.1383 22.4818H27.7614C28.375 22.4818 28.8712 22.9882 28.8712 23.6125Z" fill="#12F2AA"/>
<path d="M14.6913 31.3589C13.1989 31.3589 11.9849 30.12 11.9849 28.5969C11.9849 27.0739 13.1989 25.835 14.6913 25.835C16.1837 25.835 17.3977 27.0739 17.3977 28.5969C17.3977 30.12 16.1837 31.3589 14.6913 31.3589ZM14.6913 28.0983C14.4224 28.0983 14.2027 28.3225 14.2027 28.5969C14.2027 28.8714 14.4224 29.0956 14.6913 29.0956C14.9602 29.0956 15.1799 28.8714 15.1799 28.5969C15.1799 28.3206 14.9602 28.0983 14.6913 28.0983Z" fill="#12F2AA"/>
<path d="M25.2954 31.3589C23.803 31.3589 22.589 30.12 22.589 28.5969C22.589 27.0739 23.803 25.835 25.2954 25.835C26.7879 25.835 28.0019 27.0739 28.0019 28.5969C28.0019 30.12 26.7879 31.3589 25.2954 31.3589ZM25.2954 28.0983C25.0265 28.0983 24.8068 28.3225 24.8068 28.5969C24.8068 28.8714 25.0265 29.0956 25.2954 29.0956C25.5644 29.0956 25.7841 28.8714 25.7841 28.5969C25.7841 28.3206 25.5644 28.0983 25.2954 28.0983Z" fill="#12F2AA"/>
<path d="M10.3335 14.7965H8.9528C8.48689 14.7965 8.08727 14.5027 7.92439 14.0852C7.9225 14.0852 7.9225 14.0833 7.92439 14.0814L7.84674 13.6967V13.6948C7.84485 13.6851 7.84485 13.6735 7.84485 13.6639C7.84485 13.0376 8.34106 12.5312 8.9528 12.5312H9.87705L10.3335 14.7965Z" fill="#1232A1"/>
<path d="M7.8468 13.6968L7.9253 14.0814C7.87552 13.9616 7.84872 13.8321 7.8468 13.6968Z" fill="#FE35F1"/>
<path d="M30.7786 13.6639C30.7786 14.2901 30.2805 14.7965 29.6687 14.7965H10.3335L9.87708 12.5312H29.6687C30.2805 12.5312 30.7786 13.0376 30.7786 13.6639Z" fill="#FE35F1"/>
<path d="M9.18573 9.11049H7.85997C7.24823 9.11049 6.75012 8.60409 6.75012 7.97979C6.75012 7.35356 7.24823 6.84717 7.85997 6.84717H8.72929L9.18573 9.11049Z" fill="#1232A1"/>
<path d="M11.4888 20.4641L10.1328 20.4815H10.1195C9.58921 20.4815 9.14414 20.0988 9.03618 19.5885C9.02103 19.5151 9.01346 19.4397 9.01156 19.3624C9.00399 18.7381 9.49452 18.2239 10.1063 18.2181L11.0229 18.2065L11.4396 20.2727C11.4529 20.3365 11.4699 20.4003 11.4888 20.4641Z" fill="#1232A1"/>
<path d="M32.0002 6.84717L31.1195 15.8096C30.8714 18.3281 28.8127 20.2512 26.3316 20.2821L11.4888 20.4638C11.4699 20.4 11.4529 20.3362 11.4396 20.2725L11.0229 18.2063L12.1801 18.1928L14.3998 18.1657L17.9869 18.1212L20.2047 18.0942L23.7938 18.0497L26.0116 18.0227L26.3051 18.0188C27.6555 18.0014 28.7767 16.9538 28.9112 15.5835L28.9888 14.7968L29.2104 12.5316L29.5476 9.11049H9.18581L8.72937 6.84717H32.0002Z" fill="#FE35F1"/>
<path d="M19.0967 20.2412C18.483 20.2412 17.9868 19.7348 17.9868 19.1086V8.4627C17.9868 7.83647 18.483 7.33008 19.0967 7.33008C19.7103 7.33008 20.2065 7.83647 20.2065 8.4627V19.1086C20.2046 19.7348 19.7084 20.2412 19.0967 20.2412Z" fill="#FE35F1"/>
<path d="M13.29 20.2412C12.6764 20.2412 12.1802 19.7348 12.1802 19.1086V8.4627C12.1802 7.83647 12.6764 7.33008 13.29 7.33008C13.9037 7.33008 14.3999 7.83647 14.3999 8.4627V19.1086C14.3999 19.7348 13.9018 20.2412 13.29 20.2412Z" fill="#FE35F1"/>
<path d="M24.9017 20.2412C24.2881 20.2412 23.7919 19.7348 23.7919 19.1086V8.4627C23.7919 7.83647 24.2881 7.33008 24.9017 7.33008C25.5154 7.33008 26.0116 7.83647 26.0116 8.4627V19.1086C26.0116 19.7348 25.5154 20.2412 24.9017 20.2412Z" fill="#FE35F1"/>
</g>
<defs>
<clipPath id="clip0">
<rect width="32" height="29.5333" fill="white" transform="translate(0 1.82568)"/>
</clipPath>
</defs>
</svg>
