<svg width="32" height="32" viewBox="0 0 32 32" fill="none" xmlns="http://www.w3.org/2000/svg">
<path d="M31.885 20.6564C31.5097 22.6508 30.2728 24.124 28.5007 24.7494V26.1462C28.5007 27.2859 27.5696 28.2101 26.4299 28.2101H8.02163C6.88198 28.2101 5.95776 27.2859 5.95776 26.1462V25.3679C5.95776 24.7912 6.42336 24.3256 7.00013 24.3256C7.56996 24.3256 8.0425 24.7912 8.0425 25.3679V26.1462L26.4299 26.1254L26.416 23.9503C26.416 23.443 26.7773 23.0122 27.2707 22.9218C29.1331 22.5813 29.6751 21.1151 29.835 20.2742C30.1338 18.6759 29.5292 16.9595 28.4312 16.2924C27.9378 15.9936 27.785 15.3473 28.0838 14.8608C28.3826 14.3675 29.0288 14.2146 29.5153 14.5134C31.3707 15.6461 32.3505 18.1756 31.885 20.6564Z" fill="#FE35F1"/>
<path d="M28.0421 9.68385C27.5279 7.6686 25.9227 5.70894 23.4488 5.48657L23.1152 4.19403C22.8373 3.10996 21.7254 2.45675 20.6344 2.72776L3.35887 7.17521C2.83074 7.30724 2.39291 7.64079 2.11495 8.11334C1.83698 8.57893 1.76054 9.12791 1.89257 9.65604L2.22616 10.9347C0.134472 12.3245 -0.324158 14.8192 0.197026 16.8553C0.718211 18.8845 2.33039 20.8441 4.82513 21.0526L5.15171 22.3313C5.39493 23.2485 6.2219 23.8601 7.12529 23.8601C7.29206 23.8601 7.46578 23.8392 7.63256 23.7906L24.915 19.3501C25.9991 19.0652 26.6523 17.9533 26.3744 16.8692L26.0408 15.5767C28.1047 14.1869 28.5633 11.706 28.0421 9.68385ZM24.4008 14.1174C23.9422 14.3259 23.699 14.8401 23.8241 15.3265L24.3939 17.3279L7.17393 21.8101L6.64579 19.7531C6.52766 19.2875 6.1107 18.9679 5.63816 18.9679C5.61037 18.9679 5.58257 18.9679 5.55478 18.9748C3.62987 19.1277 2.55276 17.6475 2.2192 16.3411C1.8509 14.9165 2.2192 13.1445 3.86614 12.4009C4.32479 12.1925 4.56802 11.6852 4.44293 11.1918L3.88006 9.1974L21.093 4.71521L21.6281 6.7791C21.7532 7.26554 22.2118 7.59215 22.7122 7.5574C24.6093 7.42537 25.6864 8.89859 26.0269 10.205C26.3605 11.5115 26.1381 13.3182 24.4008 14.1174Z" fill="#12F2AA"/>
<path d="M20.9262 13.6658C20.7455 12.9084 20.3147 12.2552 19.731 11.8174C19.0917 11.3448 18.3064 11.1711 17.5837 11.3518C17.3335 11.4143 17.0903 11.5186 16.8749 11.6575L15.6519 14.6874C15.6588 14.7777 15.6797 14.868 15.7005 14.9584C15.8881 15.7089 16.312 16.369 16.9027 16.8068C17.3752 17.1543 17.9242 17.335 18.4732 17.335C18.6678 17.335 18.8554 17.3141 19.0499 17.2655C19.7727 17.0917 20.3842 16.5706 20.7317 15.8548C21.0444 15.1946 21.1138 14.4163 20.9262 13.6658ZM18.8484 14.9584C18.8067 15.0487 18.7095 15.2016 18.5496 15.2433C18.3829 15.285 18.223 15.1877 18.1466 15.1321C17.945 14.9862 17.7922 14.736 17.7227 14.458C17.6532 14.1731 17.6741 13.8882 17.7852 13.6658C17.8269 13.5755 17.9242 13.4157 18.0841 13.374C18.1118 13.367 18.1396 13.367 18.1674 13.367C18.2995 13.367 18.4176 13.4435 18.4871 13.4921C18.6816 13.638 18.8346 13.8813 18.904 14.1662C18.9735 14.4441 18.9527 14.736 18.8484 14.9584Z" fill="#12F2AA"/>
<path d="M15.0333 10.553C14.8457 9.79555 14.4218 9.14233 13.8311 8.70453C13.1988 8.23199 12.4135 8.06521 11.6838 8.23894C10.2454 8.6003 9.4045 10.2125 9.80755 11.8455C10.155 13.2632 11.3294 14.2291 12.5802 14.2291C12.7679 14.2291 12.9625 14.2013 13.1501 14.1596C13.3447 14.1109 13.5254 14.0415 13.6991 13.9442L15.0472 10.6155C15.0403 10.5947 15.0403 10.5738 15.0333 10.553ZM12.6498 12.1304C12.3787 12.1999 11.9618 11.8803 11.8298 11.3452C11.6977 10.8101 11.9131 10.3306 12.1911 10.2611C12.2189 10.2542 12.2398 10.2542 12.2676 10.2542C12.3996 10.2542 12.5247 10.3306 12.5872 10.3793C12.7887 10.5252 12.9416 10.7684 13.0111 11.0533C13.1431 11.5884 12.9277 12.061 12.6498 12.1304Z" fill="#12F2AA"/>
<path d="M13.6992 13.9443L15.0474 10.6157C15.367 12.0055 14.7833 13.3745 13.6992 13.9443Z" fill="#1232A1"/>
<path d="M18.1605 8.47477L16.8749 11.6575C16.4649 11.9146 16.1244 12.2968 15.902 12.7624C15.6241 13.3461 15.5337 14.0132 15.6519 14.6873L14.3663 17.863C14.1995 18.2661 13.8104 18.5163 13.4004 18.5163C13.2683 18.5163 13.1363 18.4885 13.0112 18.4398C12.4761 18.2244 12.219 17.6129 12.4344 17.0778L13.6992 13.9437C14.7832 13.3739 15.367 12.0049 15.0473 10.6151L16.2286 7.68952C16.444 7.16138 17.0486 6.90427 17.5837 7.11969C18.1188 7.33512 18.3759 7.93969 18.1605 8.47477Z" fill="#FE35F1"/>
<path d="M16.8749 11.6577L15.6519 14.6875C15.5338 14.0135 15.6241 13.3463 15.902 12.7626C16.1244 12.297 16.4649 11.9148 16.8749 11.6577Z" fill="#1232A1"/>
<path d="M9.61999 15.4722L6.9932 16.1185C6.90982 16.1393 6.82644 16.1532 6.74305 16.1532C6.27745 16.1532 5.85355 15.8336 5.73541 15.361C5.59643 14.7981 5.93696 14.2353 6.49289 14.0963L9.11964 13.45C9.68251 13.311 10.2454 13.6515 10.3774 14.2075C10.5164 14.7703 10.1759 15.3332 9.61999 15.4722Z" fill="#FE35F1"/>
</svg>
