<svg width="24" height="24" viewBox="0 0 24 24" fill="none" xmlns="http://www.w3.org/2000/svg">
<path d="M5.19497 21.9856L7.22857 23.8041C7.52055 24.0653 7.96108 24.0653 8.25306 23.8041L9.83079 22.3903L11.4136 23.8041C11.7056 24.0653 12.1461 24.0653 12.4381 23.8041L14.021 22.3903L15.6038 23.8041C15.8958 24.0653 16.3363 24.0653 16.6283 23.8041L18.6209 22.0163C18.8463 21.8831 19 21.6373 19 21.3555L19 0.768368C19 0.343204 18.6568 -3.00039e-08 18.2316 -6.71729e-08L5.62015 -1.1697e-06C5.19498 -1.20687e-06 4.85178 0.343203 4.85178 0.768367L4.85178 21.3555C4.85178 21.6168 4.99007 21.8473 5.19497 21.9856ZM6.38851 1.53674L17.4633 1.53674L17.4633 20.9918L16.1161 22.2007L14.5332 20.7818C14.2412 20.5206 13.8007 20.5206 13.5087 20.7818L11.9259 22.2007L10.343 20.7818C10.0511 20.5206 9.61052 20.5206 9.31854 20.7818L7.74082 22.2007L6.38851 20.9918L6.38851 1.53674Z" fill="#12F2AA"/>
<path d="M8.73445 4.65644C8.73445 4.23639 9.07766 3.88807 9.50282 3.88807L14.3999 3.88807C14.8251 3.88807 15.1683 4.23639 15.1683 4.65644C15.1683 5.0816 14.8251 5.4248 14.3999 5.4248L9.50282 5.4248C9.07766 5.4248 8.73445 5.0816 8.73445 4.65644Z" fill="#FE35F1"/>
<path d="M8.73445 7.59101C8.73445 7.17096 9.07766 6.82264 9.50282 6.82264L14.3999 6.82264C14.8251 6.82264 15.1683 7.17096 15.1683 7.59101C15.1683 8.01617 14.8251 8.35937 14.3999 8.35937L9.50282 8.35937C9.07766 8.35937 8.73445 8.01617 8.73445 7.59101Z" fill="#FE35F1"/>
<path d="M14.244 16.1523C14.244 17.1666 13.5115 18.0323 12.5075 18.3294C12.2667 18.4011 12.0106 18.442 11.7391 18.442C11.4984 18.442 11.2371 18.4011 10.9707 18.3242C10.3663 18.1654 9.73624 17.8376 9.26497 17.4278C8.94226 17.1512 8.91153 16.6646 9.18814 16.347C9.46475 16.0294 9.95138 15.9935 10.2741 16.2701C10.7198 16.6594 11.3805 16.9053 11.7391 16.9053C12.2616 16.9053 12.7073 16.5621 12.7073 16.1523C12.7073 15.8655 12.3077 15.5991 11.524 15.3737C10.8273 15.1534 9.22911 14.6514 9.22911 13.1147C9.22911 12.1004 9.96162 11.2399 10.9707 10.9428C11.2115 10.8711 11.4676 10.8301 11.7391 10.8301C12.0055 10.8301 12.2616 10.8711 12.5075 10.9479C13.0812 11.1118 13.5781 11.4601 13.8906 11.9417C14.1211 12.2951 14.0237 12.7715 13.6652 13.0071C13.3117 13.2376 12.8353 13.1403 12.6048 12.7817C12.4358 12.5256 12.1028 12.3668 11.7391 12.3668C11.2115 12.3668 10.7658 12.71 10.7658 13.1147C10.7658 13.3196 10.9093 13.5706 11.9645 13.8984C12.5177 14.0623 14.244 14.5644 14.244 16.1523Z" fill="#FE35F1"/>
<path d="M12.5074 10.7684L12.5074 10.9477C12.2616 10.8708 12.0054 10.8298 11.7391 10.8298C11.4676 10.8298 11.2115 10.8708 10.9707 10.9425L10.9707 10.7684C10.9707 10.3432 11.3139 10 11.7391 10C12.1591 10 12.5074 10.3432 12.5074 10.7684Z" fill="#FE35F1"/>
<path d="M12.5074 18.3284L12.5074 18.5025C12.5074 18.9226 12.1591 19.2709 11.739 19.2709C11.3138 19.2709 10.9706 18.9226 10.9706 18.5025L10.9706 18.3232C11.237 18.4001 11.4983 18.4411 11.739 18.4411C12.0105 18.4411 12.2666 18.4001 12.5074 18.3284Z" fill="#FE35F1"/>
</svg>
