<svg width="130" height="130" viewBox="0 0 130 130" fill="none" xmlns="http://www.w3.org/2000/svg">
<path d="M100.614 20.1543C100.614 22.4712 98.5865 24.3415 96.0747 24.3415H92.0195V15.967H96.0747C97.0431 15.967 97.9208 16.2462 98.6471 16.6928C99.8273 17.4744 100.614 18.7306 100.614 20.1543Z" fill="#1232A1"/>
<path d="M117.38 23.1696C116.623 24.2862 115.655 25.2632 114.505 26.0728L101.099 36.7641V25.682L108.816 19.5407C110.692 18.2287 110.904 15.2698 109.481 13.3995C108.846 12.5899 107.968 12.0875 106.939 11.92C105.941 11.7804 104.972 12.0316 104.155 12.5899L101.099 14.9627V13.7065C101.099 10.8871 100.13 8.23523 98.4658 6.05789L98.4961 6.02999C101.462 3.9643 104.882 3.18267 108.301 3.65722C111.781 4.13177 114.808 5.89039 116.865 8.54229C120.285 12.9807 120.315 18.9545 117.38 23.1696Z" fill="#12F2AA"/>
<path d="M125.853 77.7425C127.699 85.4749 120.618 90.36 117.955 92.2302C117.713 92.4257 110.026 98.0365 100.947 103.145C101.068 102.587 101.099 102.028 101.099 101.47V93.0956C107.454 89.2154 112.326 85.6424 112.387 85.5865C116.956 82.4322 117.289 80.8131 116.986 79.529C116.714 78.3845 115.958 77.7146 115.352 77.3796C114.626 76.9609 113.718 76.7655 112.81 76.8492L101.099 84.0233V73.974L108.664 69.3402L118.5 63.3106C120.86 61.6636 121.586 59.57 120.376 57.281C119.498 55.9132 117.652 54.5733 115.443 55.5224L101.099 64.5109V50.4698L116.2 38.8294C116.29 38.7735 116.351 38.6898 116.442 38.634C118.136 37.5174 118.409 34.5584 117.017 32.6881C116.411 31.8507 115.534 31.3203 114.505 31.1528C113.537 30.9853 112.538 31.2086 111.721 31.739L101.099 39.3039V36.7637L114.505 26.0723C115.655 25.2628 116.623 24.2858 117.38 23.1692C120.285 23.9229 122.797 25.5978 124.552 27.9705C128.668 33.6093 127.457 41.5092 121.919 45.3335L119.589 47.1479C123.1 47.8458 126.307 49.9953 128.396 53.3729C131.664 59.5421 129.848 65.8787 123.765 70.1497L121.768 71.3779C123.826 73.0249 125.248 75.2302 125.853 77.7425Z" fill="#12F2AA"/>
<path d="M79.7336 114.981C71.2298 119.168 48.321 129.999 38.2738 129.999C37.8199 129.999 37.3659 129.971 36.9725 129.916C18.5123 127.738 9.494 119.141 5.16644 112.301C-0.795304 102.922 -1.67294 90.5558 2.92699 80.032C7.3756 69.8431 6.16509 55.2716 5.19669 43.5753C4.0467 29.6738 3.22961 19.6245 11.0071 16.8609C14.9715 15.4652 18.8754 15.8002 22.2951 17.8379C24.6858 19.2895 26.7437 21.5506 28.4384 24.3421V61.9153C27.6819 48.8233 23.7477 28.6968 17.3623 24.8725C16.6662 24.4817 15.8491 24.1467 14.4268 24.6212C12.9137 26.6311 13.7005 36.4013 14.2452 42.9333C15.3044 55.4949 16.5754 71.1551 11.34 83.1584C7.79927 91.3374 8.40455 100.884 12.9742 108.086C17.7254 115.54 26.4108 120.229 38.1225 121.625C40.9974 121.932 49.592 119.029 59.2458 114.981H79.7336Z" fill="#12F2AA"/>
<path d="M101.099 13.7061V101.47C101.099 102.028 101.069 102.587 100.948 103.145V103.173C100.01 109.733 93.6847 114.981 86.2704 114.981H42.8737C34.9147 114.981 28.4385 108.923 28.4385 101.47V94.7984C28.4385 97.1154 30.4661 98.9857 32.9779 98.9857H37.5173V101.47C37.5173 104.317 39.908 106.606 42.8737 106.606H86.2704C89.3269 106.606 92.0203 104.206 92.0203 101.47V98.9857H96.0755C98.5873 98.9857 100.615 97.1154 100.615 94.7984C100.615 94.3518 100.554 93.9331 100.373 93.5423C99.8281 91.8395 98.1031 90.6112 96.0755 90.6112H92.0203V24.3417H96.0755C98.5873 24.3417 100.615 22.4714 100.615 20.1544C100.615 18.7308 99.8281 17.4746 98.6478 16.693C97.9215 16.2464 97.0439 15.9672 96.0755 15.9672H92.0203V13.7061C92.0203 10.9147 89.2664 8.37442 86.2704 8.37442H42.8737C39.9685 8.37442 37.5173 10.803 37.5173 13.7061V15.9672H32.9779C30.4661 15.9672 28.4385 17.8654 28.4385 20.1544V13.7061C28.4385 6.14125 34.9147 0 42.8737 0H86.2704C91.2637 0 95.7729 2.42858 98.4663 6.05749C100.131 8.23484 101.099 10.8868 101.099 13.7061Z" fill="#FE35F1"/>
<path d="M37.5173 24.3413V90.6108H32.9779C30.4661 90.6108 28.4385 92.509 28.4385 94.7981V20.1541C28.4385 22.471 30.4661 24.3413 32.9779 24.3413H37.5173Z" fill="#FE35F1"/>
<path d="M37.5173 15.967V24.3415H32.9779C30.4661 24.3415 28.4385 22.4712 28.4385 20.1543C28.4385 17.8652 30.4661 15.967 32.9779 15.967H37.5173Z" fill="#1232A1"/>
<path d="M92.0196 15.967H37.5166V24.3415H92.0196V15.967Z" fill="#12F2AA"/>
<path d="M37.5173 90.6128V98.9872H32.9779C30.4661 98.9872 28.4385 97.1169 28.4385 94.8C28.4385 92.511 30.4661 90.6128 32.9779 90.6128H37.5173Z" fill="#1232A1"/>
<path d="M92.0196 90.6128H37.5166V98.9872H92.0196V90.6128Z" fill="#12F2AA"/>
<path d="M100.615 94.8C100.615 97.1169 98.5875 98.9872 96.0757 98.9872H92.0205V90.6128H96.0757C98.1033 90.6128 99.8283 91.841 100.373 93.5438C100.555 93.9347 100.615 94.3534 100.615 94.8Z" fill="#1232A1"/>
</svg>
