<svg width="130" height="130" viewBox="0 0 130 130" fill="none" xmlns="http://www.w3.org/2000/svg">
<path d="M112.863 97.7485C110.994 120.023 96.6467 124.876 80.5512 125.871C81.2746 124.605 81.6965 123.188 81.6965 121.651C81.6965 119.872 81.1238 118.215 80.1895 116.858C95.0794 115.833 101.5 111.523 103.429 100.702H103.851C107.287 100.702 110.421 99.5872 112.863 97.7485Z" fill="#12F2AA"/>
<path d="M80.5504 125.87C79.1036 128.342 76.421 130 73.3465 130H65.148C60.5364 130 56.7988 126.232 56.7988 121.651C56.7988 117.039 60.5364 113.271 65.148 113.271H73.3465C76.1798 113.271 78.6816 114.688 80.1887 116.858C79.1638 116.918 78.1089 116.979 77.0238 117.009C74.5221 117.099 72.593 119.179 72.6533 121.681C72.7437 124.122 74.7632 126.051 77.1745 126.051C77.2348 126.051 77.2951 126.051 77.3554 126.021C78.4405 125.991 79.4954 125.931 80.5504 125.87Z" fill="#FE35F1"/>
<path d="M81.6952 121.65C81.6952 123.188 81.2732 124.604 80.5498 125.87C79.4949 125.931 78.4399 125.991 77.3548 126.021C77.2946 126.051 77.2343 126.051 77.174 126.051C74.7626 126.051 72.7432 124.122 72.6527 121.681C72.5925 119.179 74.5215 117.099 77.0233 117.009C78.1084 116.978 79.1633 116.918 80.1881 116.858C81.1225 118.214 81.6952 119.872 81.6952 121.65Z" fill="#1232A1"/>
<path d="M37.2068 55.8818V96.181C37.2068 98.6828 35.1873 100.702 32.6855 100.702H24.9995C17.3134 100.702 11.0439 95.1864 11.0439 88.3744V63.6885C11.0439 57.63 16.0173 52.5964 22.5279 51.5716V55.8818C22.5279 58.3534 24.5473 60.4031 27.0491 60.4031H24.9995C22.1059 60.4031 20.0864 62.1211 20.0864 63.6885V88.3744C20.0864 89.9417 22.1059 91.6598 24.9995 91.6598H28.1643V60.4031H27.0491C29.5508 60.4031 31.5703 58.3534 31.5703 55.8818V51.3606H32.6855C35.1873 51.3606 37.2068 53.3801 37.2068 55.8818Z" fill="#FE35F1"/>
<path d="M113.014 95.3695C112.984 96.1833 112.923 96.967 112.863 97.7506C110.422 99.5893 107.287 100.705 103.851 100.705H103.429C103.7 98.9563 103.911 97.0574 104.001 94.9776C104.062 93.1691 105.147 91.6922 106.684 91.0291C106.714 90.9989 106.744 90.999 106.774 90.999C107.377 90.7578 108.01 90.6373 108.703 90.6674C111.205 90.7578 113.134 92.8677 113.014 95.3695Z" fill="#1232A1"/>
<path d="M106.683 91.0268C105.146 91.6899 104.061 93.1669 104.001 94.9754C103.91 97.0551 103.699 98.9541 103.428 100.702H96.1638C93.6621 100.702 91.6426 98.6828 91.6426 96.181V55.8818C91.6426 53.3801 93.6621 51.3606 96.1638 51.3606H97.3092V55.8818C97.3092 58.3534 99.3287 60.4031 101.83 60.4031H100.685V91.6598H103.85C104.935 91.6598 105.9 91.4187 106.683 91.0268Z" fill="#FE35F1"/>
<path d="M117.806 63.6891V88.3751C117.806 92.1428 115.877 95.5186 112.863 97.7491C112.923 96.9654 112.983 96.1817 113.014 95.3679C113.134 92.8662 111.205 90.7563 108.703 90.6658C108.01 90.6357 107.377 90.7563 106.774 90.9974C108.01 90.3343 108.764 89.3095 108.764 88.3751V63.6891C108.764 62.1218 106.744 60.4037 103.851 60.4037H101.831C104.333 60.4037 106.352 58.3541 106.352 55.8825V51.5723C112.863 52.5971 117.806 57.6307 117.806 63.6891Z" fill="#FE35F1"/>
<path d="M106.352 51.5716V55.8818C106.352 58.3534 104.333 60.4031 101.831 60.4031C99.3291 60.4031 97.3096 58.3534 97.3096 55.8818V51.3606H103.85C104.694 51.3606 105.538 51.4209 106.352 51.5716Z" fill="#1232A1"/>
<path d="M31.5708 51.3606V55.8818C31.5708 58.3534 29.5513 60.4031 27.0496 60.4031C24.5478 60.4031 22.5283 58.3534 22.5283 55.8818V51.5716C23.3421 51.4209 24.156 51.3606 24.9999 51.3606H31.5708Z" fill="#1232A1"/>
<path d="M106.352 41.9269V51.5722C105.538 51.4214 104.694 51.3612 103.85 51.3612H97.3094V41.9269C97.3094 23.7817 82.5702 9.04246 64.425 9.04246C46.31 9.04246 31.5708 23.7817 31.5708 41.9269V51.3612H24.9999C24.156 51.3612 23.3421 51.4214 22.5283 51.5722V41.9269C22.5283 18.8083 41.3366 0 64.425 0C87.5436 0 106.352 18.8083 106.352 41.9269Z" fill="#12F2AA"/>
</svg>
