<svg width="48" height="48" viewBox="0 0 48 48" fill="none" xmlns="http://www.w3.org/2000/svg">
<path d="M24 0C10.7708 0 0 10.7604 0 24C0 37.2292 10.7708 48 24 48C37.2292 48 48 37.2292 48 24C48 10.7604 37.2292 0 24 0ZM24 44.875C12.4896 44.875 3.125 35.5104 3.125 24C3.125 12.4896 12.4896 3.125 24 3.125C35.5104 3.125 44.875 12.4896 44.875 24C44.875 35.5104 35.5104 44.875 24 44.875Z" fill="#12F2AA"/>
<path d="M22.2397 33.3854V36.5833C19.9688 36.1667 17.3959 34.9479 15.5418 33.3229C14.8855 32.7604 14.823 31.7708 15.3855 31.125C15.9584 30.4688 16.9376 30.4063 17.5938 30.9688C18.8647 32.0729 20.6563 32.9896 22.2397 33.3854Z" fill="#12F2AA"/>
<path d="M18.9792 18.4167C18.9792 19.8125 19.9272 20.8229 22.2397 21.7812V25.1354C19.6355 24.2396 15.8542 22.5104 15.8542 18.4167C15.8542 14.9479 18.5938 12.0625 22.2397 11.4062V14.6146C20.3438 15.1458 18.9792 16.6562 18.9792 18.4167Z" fill="#12F2AA"/>
<path d="M31.7606 29.5835C31.7606 33.0419 29.0002 35.9377 25.3647 36.594V33.3856C27.271 32.844 28.6356 31.344 28.6356 29.5835C28.6356 28.6669 28.2502 27.396 25.3647 26.1877V22.8544C27.7189 23.6356 31.7606 25.4585 31.7606 29.5835Z" fill="#12F2AA"/>
<path d="M30.2085 16.9477C29.4898 17.4269 28.521 17.2186 28.0522 16.4998C27.4585 15.5936 26.5002 14.9269 25.3647 14.6144V11.3956C27.5627 11.8019 29.5106 13.0206 30.6668 14.7915C31.1356 15.5102 30.9377 16.479 30.2085 16.9477Z" fill="#12F2AA"/>
<path d="M25.3647 11.3961V14.6149C24.8752 14.4587 24.3439 14.3857 23.8022 14.3857C23.2502 14.3857 22.7293 14.4587 22.2397 14.6149V11.4066C22.7397 11.3128 23.271 11.2607 23.8022 11.2607C24.3335 11.2607 24.8543 11.3128 25.3647 11.3961Z" fill="#12F2AA"/>
<path d="M25.3647 9.77063V11.3956C24.8543 11.3123 24.3335 11.2602 23.8022 11.2602C23.271 11.2602 22.7397 11.3123 22.2397 11.4061V9.77063C22.2397 8.91646 22.9481 8.20813 23.8022 8.20813C24.6668 8.20813 25.3647 8.91646 25.3647 9.77063Z" fill="#12F2AA"/>
<path d="M25.3647 33.3851V36.5935C24.8543 36.6768 24.3335 36.7289 23.8022 36.7289C23.3127 36.7289 22.7814 36.6768 22.2397 36.583V33.3851C22.7918 33.531 23.3335 33.6039 23.8022 33.6039C24.3543 33.6039 24.8752 33.531 25.3647 33.3851Z" fill="#12F2AA"/>
<path d="M25.3647 22.8542V26.1875C24.8022 25.9583 24.1356 25.7292 23.3647 25.5C23.0314 25.3958 22.6564 25.2813 22.2397 25.1354V21.7812C22.8231 22.0208 23.5002 22.2708 24.271 22.5104C24.5523 22.5938 24.9272 22.7083 25.3647 22.8542Z" fill="#12F2AA"/>
<path d="M25.3647 14.6149V22.8545C24.9272 22.7086 24.5523 22.5941 24.271 22.5107C23.5002 22.2712 22.8231 22.0211 22.2397 21.7816V14.6149C22.7293 14.4587 23.2502 14.3857 23.8022 14.3857C24.3439 14.3857 24.8752 14.4587 25.3647 14.6149Z" fill="#12F2AA"/>
<path d="M25.3647 26.1877V33.3856C24.8752 33.5315 24.3543 33.6044 23.8022 33.6044C23.3335 33.6044 22.7918 33.5315 22.2397 33.3856V25.1356C22.6564 25.2815 23.0314 25.396 23.3647 25.5002C24.1356 25.7294 24.8022 25.9585 25.3647 26.1877Z" fill="#12F2AA"/>
<path d="M25.3647 36.5936V38.2186C25.3647 39.0831 24.6668 39.7811 23.8022 39.7811C22.9481 39.7811 22.2397 39.0831 22.2397 38.2186V36.5831C22.7814 36.6769 23.3127 36.729 23.8022 36.729C24.3335 36.729 24.8543 36.6769 25.3647 36.5936Z" fill="#12F2AA"/>
</svg>
