<svg width="23" height="17" viewBox="0 0 23 17" fill="none" xmlns="http://www.w3.org/2000/svg">
<path d="M0.680008 3.26822C0.680008 4.23786 1.11017 5.1969 1.9311 5.84131L9.19681 11.5411C10.3843 12.473 12.0549 12.473 13.2424 11.5411L20.5081 5.84131C21.9304 4.72495 22.1772 2.67071 21.061 1.25029C19.9447 -0.170127 17.8863 -0.416695 16.464 0.698159L11.2219 4.81117L5.97972 0.698159C4.55748 -0.416695 2.49909 -0.170127 1.3828 1.25029C0.908718 1.84932 0.680008 2.56028 0.680008 3.26822Z" fill="#12F2AA"/>
<path d="M-6.11923e-05 7.67532C-6.11568e-05 6.86313 0.276218 6.09606 0.797558 5.45533C1.41255 4.7003 2.29757 4.22051 3.28718 4.1062C4.27679 3.99189 5.25391 4.2551 6.03748 4.8492L11.048 8.64091C11.1494 8.71762 11.2899 8.71762 11.3914 8.64091L16.4018 4.8492C17.1854 4.25661 18.1625 3.99189 19.1521 4.1062C20.1417 4.22051 21.0252 4.7003 21.6417 5.45534C22.2583 6.21037 22.5315 7.1519 22.4128 8.10547C22.2942 9.05904 21.7963 9.91034 21.0127 10.5044L13.5251 16.1717C13.0319 16.5447 12.5105 16.847 11.9267 16.9493C10.9028 17.1283 9.77895 16.826 8.91421 16.1717L1.4266 10.5044C0.519718 9.81859 -6.12409e-05 8.78681 -6.11923e-05 7.67532ZM20.9924 7.67231C20.9924 7.18199 20.8238 6.70821 20.5039 6.31565C20.1261 5.8524 19.5845 5.55912 18.9789 5.48993C18.3732 5.41924 17.7739 5.58168 17.2947 5.94415L12.2842 9.73587C11.6567 10.2111 10.781 10.2111 10.1536 9.73587L5.14309 5.94415C4.66233 5.58017 4.06451 5.41924 3.45888 5.48993C2.85325 5.56062 2.31162 5.85391 1.93389 6.31565C1.6139 6.70821 1.44533 7.17747 1.44533 7.67381C1.44533 8.35515 1.76375 8.98685 2.31943 9.40799L9.80704 15.0753C10.639 15.7039 11.7987 15.7039 12.6307 15.0753L20.1183 9.40799C20.5991 9.04401 20.9034 8.5236 20.9752 7.93853C20.9862 7.84979 20.9924 7.76104 20.9924 7.67231Z" fill="#FE35F1"/>
</svg>
