<svg width="16" height="16" viewBox="0 0 16 16" fill="none" xmlns="http://www.w3.org/2000/svg">
<path d="M3.44877 4.24644C3.21084 3.94299 3.10499 3.56594 3.15136 3.18385C3.19774 2.80176 3.38928 2.46 3.69274 2.22208C3.94981 2.02045 4.25932 1.91358 4.58092 1.91358C4.63939 1.91358 4.69786 1.91661 4.75633 1.92367C5.13842 1.97004 5.48018 2.16159 5.71811 2.46504L8.69113 6.24963C9.97652 6.21535 11.2347 6.08429 12.3124 5.85645L13.3064 4.59022C14.0494 3.64357 13.8851 2.27349 12.9385 1.53049C11.9918 0.787483 10.6217 0.951811 9.87873 1.89846L8.15581 4.09118L6.4349 1.90048C6.04676 1.40548 5.48825 1.09194 4.86421 1.01734C4.23915 0.94173 3.62317 1.11513 3.12817 1.50327C2.63317 1.89141 2.31964 2.44992 2.24504 3.07396C2.17043 3.69801 2.34283 4.31499 2.73096 4.80999L3.52438 5.82016C3.94679 5.91492 4.39945 5.99457 4.87227 6.05909L3.44877 4.24644Z" fill="#12F2AA"/>
<path d="M7.57541 11.3307L5.7174 13.6958C5.44217 14.0466 5.02783 14.2472 4.58222 14.2472C4.25659 14.2472 3.94911 14.1404 3.69304 13.9387C3.38958 13.7008 3.19804 13.359 3.15166 12.977C3.10529 12.5949 3.21114 12.2168 3.44907 11.9144L4.62457 10.4183C4.2697 10.3759 3.92189 10.3255 3.58214 10.2681L2.73227 11.3498C2.34414 11.8448 2.17073 12.4608 2.24634 13.0848C2.32095 13.7089 2.63549 14.2674 3.12948 14.6555C3.54887 14.9852 4.05093 15.1586 4.58323 15.1586C5.31111 15.1586 5.98657 14.8299 6.43621 14.2583L8.15712 12.0676L9.88004 14.2603C10.3095 14.8078 10.9497 15.0931 11.5949 15.0931C12.0657 15.0931 12.5405 14.9408 12.9398 14.6273C13.8864 13.8843 14.0507 12.5142 13.3077 11.5676L12.2996 10.2882C10.9971 10.4979 9.57054 10.6068 8.13998 10.6129L7.57541 11.3307Z" fill="#12F2AA"/>
<path d="M4.87352 6.05908L5.93309 7.40798C6.2436 7.80419 6.2436 8.35665 5.93309 8.75185L5.78993 8.93432L4.62451 10.4183C5.70827 10.5484 6.85454 10.6139 7.99979 10.6139C8.04617 10.6139 8.09254 10.6129 8.13892 10.6129L9.42834 8.97162C9.84067 8.44738 9.84067 7.71446 9.42834 7.19022L8.69037 6.25063C7.39389 6.2839 6.06919 6.22139 4.87352 6.05908Z" fill="#FE35F1"/>
<path d="M15.9096 7.1066C15.5689 5.95227 14.3561 5.29294 13.2017 5.6337C12.9225 5.71637 12.6241 5.78996 12.3105 5.8565L10.5654 8.08047L12.2994 10.2883C13.0626 10.1653 13.7844 10.0081 14.4377 9.81449C15.5921 9.47373 16.2514 8.26093 15.9096 7.1066Z" fill="#FE35F1"/>
<path d="M5.21518 7.97152L3.52552 5.82114C3.27147 5.76469 3.02749 5.70218 2.79764 5.63463C1.64331 5.29287 0.430506 5.9522 0.0897518 7.10653C-0.251002 8.26086 0.408326 9.47265 1.56266 9.81442C2.18166 9.99689 2.86216 10.1481 3.58198 10.2681L5.21518 8.18827C5.26558 8.12476 5.26558 8.03604 5.21518 7.97152Z" fill="#FE35F1"/>
<path d="M5.79018 8.93448L5.93334 8.75201C6.24385 8.3558 6.24385 7.80334 5.93334 7.40815L4.87377 6.05924C4.40095 5.99573 3.9493 5.91508 3.52588 5.82031L5.21553 7.9717C5.26594 8.03521 5.26594 8.12494 5.21553 8.18845L3.58233 10.2683C3.92208 10.3247 4.26989 10.3751 4.62476 10.4185L5.79018 8.93448Z" fill="#1232A1"/>
<path d="M12.3116 5.85645C11.2339 6.08429 9.97677 6.21535 8.69037 6.24962L9.42834 7.18922C9.84067 7.71345 9.84067 8.44638 9.42834 8.97062L8.13892 10.6119C9.56948 10.6048 10.996 10.497 12.2985 10.2873L10.5645 8.07941L12.3116 5.85645Z" fill="#1232A1"/>
</svg>
