<svg width="15" height="16" viewBox="0 0 15 16" fill="none" xmlns="http://www.w3.org/2000/svg">
<path d="M6.91538 0.00700188C7.3236 0.00530624 7.72691 0.0890255 8.09488 0.251842C8.46286 0.414658 8.7859 0.652321 9.03963 0.946905L13.7384 6.4603C14.1125 6.89745 14.3158 7.43784 14.3158 7.99443C14.3158 8.55102 14.1125 9.09141 13.7384 9.52855L9.03963 15.049C8.59693 15.5679 7.94857 15.9037 7.23716 15.9823C6.52575 16.0609 5.80958 15.876 5.24619 15.4681C4.68281 15.0603 4.31835 14.4631 4.23301 13.8077C4.14767 13.1524 4.34843 12.4927 4.79113 11.9737L8.18841 8.00231L4.79113 4.02566C4.47702 3.65922 4.28132 3.21869 4.22644 2.75452C4.17155 2.29036 4.25971 1.82135 4.48082 1.40121C4.70192 0.98107 5.04703 0.626798 5.47659 0.37898C5.90616 0.131162 6.40282 -0.000181198 6.90968 0L6.91538 0.00700188Z" fill="#FE35F1"/>
<path d="M2.70481 0.00700188C3.11303 0.00530624 3.51634 0.0890255 3.88431 0.251842C4.25229 0.414658 4.57533 0.652321 4.82906 0.946905L9.52787 6.4603C9.90188 6.89745 10.1053 7.43784 10.1053 7.99443C10.1053 8.55102 9.90188 9.09141 9.52787 9.52855L4.82906 15.049C4.38636 15.5679 3.73799 15.9037 3.02659 15.9823C2.31518 16.0609 1.59901 15.876 1.03562 15.4681C0.472234 15.0603 0.107783 14.4631 0.0224426 13.8077C-0.0628978 13.1524 0.137863 12.4927 0.580559 11.9737L3.97784 8.00231L0.580559 4.02566C0.266452 3.65922 0.0707467 3.21869 0.0158647 2.75452C-0.0390173 2.29036 0.0491432 1.82135 0.270247 1.40121C0.49135 0.98107 0.836454 0.626798 1.26602 0.37898C1.69559 0.131162 2.19225 -0.000181198 2.69911 0L2.70481 0.00700188Z" fill="#12F2AA"/>
</svg>
