<svg width="52" height="52" viewBox="0 0 52 52" fill="none" xmlns="http://www.w3.org/2000/svg">
<path d="M51.8131 33.5666C51.2033 36.8075 49.1933 39.2015 46.3137 40.2178V42.4876C46.3137 44.3395 44.8006 45.8414 42.9486 45.8414H13.0352C11.1832 45.8414 9.6814 44.3395 9.6814 42.4876V41.2228C9.6814 40.2856 10.438 39.529 11.3752 39.529C12.3012 39.529 13.0691 40.2856 13.0691 41.2228V42.4876L42.9486 42.4537L42.926 38.9192C42.926 38.0948 43.5132 37.3947 44.315 37.2479C47.3413 36.6946 48.2221 34.3119 48.4818 32.9455C48.9674 30.3483 47.985 27.5591 46.2008 26.475C45.399 25.9895 45.1506 24.9393 45.6361 24.1488C46.1217 23.3471 47.1719 23.0986 47.9624 23.5842C50.9774 25.4248 52.5697 29.5352 51.8131 33.5666Z" fill="#FE35F1"/>
<path d="M45.5685 15.7366C44.7328 12.4618 42.1243 9.27733 38.1043 8.91598L37.5623 6.8156C37.1106 5.054 35.3038 3.99252 33.5309 4.43292L5.45816 11.66C4.59995 11.8746 3.88849 12.4166 3.43679 13.1845C2.9851 13.9411 2.86088 14.8332 3.07543 15.6914L3.61751 17.7692C0.218517 20.0276 -0.526757 24.0816 0.320167 27.3902C1.16709 30.6876 3.78688 33.872 7.84083 34.2108L8.37154 36.2886C8.76677 37.7792 10.1106 38.7729 11.5786 38.7729C11.8496 38.7729 12.1319 38.739 12.4029 38.66L40.4869 31.4442C42.2485 30.9812 43.3101 29.1744 42.8584 27.4128L42.3163 25.3124C45.6701 23.054 46.4154 19.0226 45.5685 15.7366ZM39.6513 22.9411C38.906 23.2798 38.5108 24.1155 38.7141 24.9059L39.64 28.1581L11.6576 35.4417L10.7994 32.0991C10.6074 31.3425 9.92989 30.8231 9.16201 30.8231C9.11684 30.8231 9.07168 30.8231 9.02651 30.8344C5.89853 31.0828 4.14824 28.6776 3.60621 26.5546C3.00771 24.2397 3.6062 21.3601 6.28248 20.1518C7.02778 19.8131 7.42303 18.9887 7.21977 18.187L6.30509 14.9461L34.2761 7.66253L35.1457 11.0163C35.3489 11.8068 36.0942 12.3375 36.9073 12.2811C39.9901 12.0665 41.7404 14.4605 42.2937 16.5835C42.8358 18.7064 42.4744 21.6424 39.6513 22.9411Z" fill="#FE35F1"/>
<path d="M34.0052 22.2073C33.7116 20.9764 33.0115 19.9149 32.0629 19.2035C31.024 18.4356 29.748 18.1533 28.5736 18.4469C28.167 18.5486 27.7718 18.718 27.4218 18.9438L25.4343 23.8673C25.4456 24.0141 25.4795 24.1609 25.5134 24.3077C25.8183 25.5272 26.5071 26.6 27.4669 27.3114C28.2348 27.876 29.1269 28.1696 30.019 28.1696C30.3352 28.1696 30.64 28.1357 30.9562 28.0567C32.1306 27.7744 33.1244 26.9275 33.689 25.7644C34.1972 24.6916 34.3101 23.4269 34.0052 22.2073ZM30.6288 24.3077C30.561 24.4545 30.4029 24.7029 30.1432 24.7706C29.8722 24.8384 29.6124 24.6803 29.4882 24.59C29.1608 24.3528 28.9123 23.9463 28.7994 23.4946C28.6865 23.0316 28.7204 22.5686 28.9011 22.2073C28.9688 22.0605 29.1269 21.8008 29.3866 21.733C29.4318 21.7217 29.477 21.7217 29.5221 21.7217C29.7367 21.7217 29.9286 21.8459 30.0415 21.925C30.3577 22.1621 30.6062 22.5573 30.7191 23.0203C30.8321 23.472 30.7982 23.9463 30.6288 24.3077Z" fill="#FE35F1"/>
<path d="M24.4292 17.1486C24.1243 15.9178 23.4355 14.8563 22.4757 14.1449C21.4481 13.377 20.172 13.106 18.9863 13.3883C16.6488 13.9755 15.2824 16.5953 15.9374 19.249C16.502 21.5526 18.4104 23.1223 20.443 23.1223C20.7479 23.1223 21.0641 23.0771 21.369 23.0093C21.6852 22.9303 21.9788 22.8174 22.2611 22.6593L24.4518 17.2503C24.4405 17.2164 24.4405 17.1825 24.4292 17.1486ZM20.556 19.712C20.1156 19.8249 19.438 19.3055 19.2235 18.436C19.0089 17.5664 19.3589 16.7873 19.8106 16.6743C19.8558 16.663 19.8897 16.663 19.9349 16.663C20.1495 16.663 20.3527 16.7873 20.4543 16.8663C20.7818 17.1035 21.0302 17.4987 21.1431 17.9617C21.3577 18.8312 21.0077 19.5991 20.556 19.712Z" fill="#FE35F1"/>
<path d="M22.2612 22.6596L24.4519 17.2506C24.9714 19.5091 24.0228 21.7337 22.2612 22.6596Z" fill="#FE35F1"/>
<path d="M29.5109 13.7718L27.4218 18.9437C26.7556 19.3615 26.2022 19.9826 25.8409 20.7392C25.3892 21.6877 25.2424 22.7718 25.4344 23.8672L23.3452 29.0277C23.0742 29.6827 22.4419 30.0892 21.7757 30.0892C21.5611 30.0892 21.3465 30.0441 21.1432 29.965C20.2737 29.6149 19.8559 28.6212 20.206 27.7517L22.2612 22.6589C24.0228 21.7329 24.9714 19.5083 24.4519 17.2498L26.3716 12.4958C26.7216 11.6376 27.7041 11.2197 28.5736 11.5698C29.4431 11.9199 29.8609 12.9023 29.5109 13.7718Z" fill="#FE35F1"/>
<path d="M27.4216 18.9445L25.4342 23.8679C25.2422 22.7726 25.389 21.6885 25.8407 20.7399C26.202 19.9833 26.7554 19.3623 27.4216 18.9445Z" fill="#FE35F1"/>
<path d="M15.6325 25.1428L11.3639 26.193C11.2284 26.2269 11.0929 26.2495 10.9574 26.2495C10.2008 26.2495 9.51199 25.73 9.32002 24.9622C9.09417 24.0475 9.64753 23.1328 10.5509 22.9069L14.8194 21.8568C15.7341 21.6309 16.6487 22.1842 16.8633 23.0876C17.0891 24.0023 16.5358 24.917 15.6325 25.1428Z" fill="#FE35F1"/>
</svg>
