<svg width="80" height="80" viewBox="0 0 80 80" fill="none" xmlns="http://www.w3.org/2000/svg">
<path d="M21.164 75.296L4.5146e-05 80L4.70404 58.836C1.60617 53.0415 -0.00984739 46.5706 4.5146e-05 40C4.5146e-05 17.908 17.908 0 40 0C62.092 0 80 17.908 80 40C80 62.092 62.092 80 40 80C33.4294 80.0098 26.9585 78.3938 21.164 75.296ZM22.324 66.844L24.936 68.244C29.5702 70.7205 34.7456 72.0109 40 72C46.329 72 52.5159 70.1232 57.7783 66.607C63.0406 63.0908 67.1422 58.0931 69.5642 52.2458C71.9862 46.3986 72.6199 39.9645 71.3851 33.7571C70.1504 27.5497 67.1027 21.8479 62.6274 17.3726C58.1521 12.8973 52.4503 9.84959 46.2429 8.61487C40.0355 7.38014 33.6014 8.01385 27.7542 10.4359C21.9069 12.8579 16.9092 16.9594 13.393 22.2217C9.87681 27.4841 8.00004 33.671 8.00004 40C8.00004 45.336 9.30004 50.472 11.76 55.064L13.156 57.676L10.536 69.464L22.324 66.844ZM20 40H28C28 43.1826 29.2643 46.2348 31.5147 48.4853C33.7652 50.7357 36.8174 52 40 52C43.1826 52 46.2349 50.7357 48.4853 48.4853C50.7357 46.2348 52 43.1826 52 40H60C60 45.3043 57.8929 50.3914 54.1422 54.1421C50.3914 57.8928 45.3043 60 40 60C34.6957 60 29.6086 57.8928 25.8579 54.1421C22.1072 50.3914 20 45.3043 20 40Z" fill="#FE35F1"/>
</svg>
