<svg width="46" height="46" viewBox="0 0 46 46" fill="none" xmlns="http://www.w3.org/2000/svg">
<path d="M46 10.8032V44.5281C46 45.3425 45.3424 45.9999 44.5278 45.9999H1.47216C0.657564 45.9999 0 45.3425 0 44.5281V10.8032C0 10.7836 0 10.7541 0.00981438 10.7345C0.0196288 10.9896 0.0981438 11.2447 0.24536 11.4704C0.520162 11.8727 0.981438 12.1278 1.47216 12.1278H2.94431V43.0562H43.0557V12.1278H44.5278C45.0186 12.1278 45.4798 11.8727 45.7546 11.4704C45.9019 11.2447 45.9804 10.9896 45.9902 10.7345C46 10.7541 46 10.7836 46 10.8032Z" fill="#FE35F1"/>
<path d="M2.94402 10.8033V12.1279H1.47186C0.981145 12.1279 0.519869 11.8728 0.245067 11.4705C0.0978509 11.2448 0.0193359 10.9897 0.00952148 10.7346C0.0389646 9.9496 0.676899 9.33142 1.47186 9.33142C2.28646 9.33142 2.94402 9.98884 2.94402 10.8033Z" fill="#FE35F1"/>
<path d="M45.9899 10.7346C45.9801 10.9897 45.9016 11.2448 45.7544 11.4705C45.4796 11.8728 45.0183 12.1279 44.5276 12.1279H43.0554V10.8033C43.0554 9.98884 43.713 9.33142 44.5276 9.33142C45.3225 9.33142 45.9605 9.9496 45.9899 10.7346Z" fill="#FE35F1"/>
<path d="M45.9901 10.7347C45.9607 9.94967 45.3227 9.33149 44.5278 9.33149C43.7132 9.33149 43.0556 9.98891 43.0556 10.8033V12.128H27.5587V11.1958C27.5587 11.1468 27.5587 11.0879 27.5489 11.029L27.3428 9.18431H42.3195L39.6991 2.94369H26.6264L26.4399 1.30504C26.3516 0.559303 25.7234 0 24.9775 0H40.6707C41.2694 0 41.7994 0.353241 42.0349 0.90273L45.8822 10.087C45.9705 10.2931 46.0098 10.5188 45.9901 10.7347Z" fill="#FE35F1"/>
<path d="M21.2381 0C20.4922 0 19.8641 0.559303 19.7758 1.30504L19.5893 2.94369H6.30061L3.68999 9.18431H18.8728L18.6667 11.029C18.6569 11.0879 18.6569 11.1468 18.6569 11.1958V12.128H2.94409V10.8033C2.94409 9.98891 2.28653 9.33149 1.47194 9.33149C0.67697 9.33149 0.0390354 9.94967 0.00959227 10.7347C-0.0100365 10.5188 0.029221 10.2931 0.11755 10.087L3.96479 0.90273C4.20033 0.353241 4.73031 0 5.32899 0H21.2381Z" fill="#FE35F1"/>
<path d="M23.1129 26.8656C23.0736 27.1502 22.9362 27.4249 22.7203 27.6506C22.4357 27.9548 22.0431 28.1118 21.6604 28.1118C21.2972 28.1118 20.9243 27.9744 20.6397 27.6997L19.9527 27.0423V35.3336C19.9527 36.1481 19.2951 36.8055 18.4805 36.8055C17.6757 36.8055 17.0083 36.1481 17.0083 35.3336V27.0521L16.3311 27.6997C15.7423 28.2688 14.8099 28.2394 14.2407 27.6506C13.6813 27.0717 13.7009 26.1395 14.2898 25.5704L17.4402 22.5679L17.4696 22.5384C17.5285 22.4795 17.5972 22.4305 17.6659 22.3912C17.7346 22.3323 17.8229 22.2931 17.9113 22.2539C17.9603 22.2342 18.0094 22.2146 18.0585 22.2048C18.0683 22.2048 18.0781 22.195 18.0879 22.195C18.1272 22.1852 18.1664 22.1754 18.2155 22.1655C18.3038 22.1459 18.402 22.1361 18.4903 22.1361C18.5688 22.1361 18.6375 22.1459 18.7062 22.1557C18.7455 22.1655 18.7847 22.1754 18.824 22.1852C18.9025 22.195 18.981 22.2244 19.0497 22.2539C19.1381 22.2931 19.2264 22.3323 19.3049 22.3912C19.3736 22.4305 19.4423 22.4795 19.5012 22.5384L22.6712 25.5704C22.9166 25.8059 23.0638 26.1003 23.1031 26.4045C23.0736 26.5516 23.0736 26.7086 23.1129 26.8656Z" fill="#FE35F1"/>
<path d="M23.1126 26.8658C23.0733 26.7088 23.0733 26.5518 23.1028 26.4047C23.1322 26.5518 23.1322 26.7088 23.1126 26.8658Z" fill="#FE35F1"/>
<path d="M31.9652 27.6506C31.6805 27.9548 31.2978 28.1118 30.9052 28.1118C30.5421 28.1118 30.1691 27.9744 29.8845 27.6997L29.2073 27.0521V35.3336C29.2073 36.1481 28.5399 36.8055 27.7352 36.8055C26.9206 36.8055 26.263 36.1481 26.263 35.3336V27.0423L25.576 27.6997C24.9871 28.2688 24.0548 28.2394 23.4954 27.6506C23.2794 27.4249 23.142 27.1502 23.1126 26.8656C23.1322 26.7086 23.1322 26.5517 23.1028 26.4045C23.1519 26.1003 23.2893 25.8059 23.5346 25.5704L26.7145 22.5384C26.7734 22.4795 26.8421 22.4305 26.9108 22.3912C26.9893 22.3324 27.0776 22.2931 27.1659 22.2539C27.2248 22.2244 27.2935 22.2048 27.3622 22.195C27.6076 22.1165 27.8726 22.1165 28.1277 22.195C28.1866 22.2048 28.2455 22.2244 28.3044 22.2539C28.3927 22.2931 28.4811 22.3324 28.5498 22.3912C28.6185 22.4305 28.6872 22.4795 28.746 22.5384L28.7755 22.5679L31.9259 25.5704C32.5148 26.1395 32.5344 27.0717 31.9652 27.6506Z" fill="#FE35F1"/>
<path d="M23.1126 26.8657C23.0733 26.7087 23.0733 26.5517 23.1028 26.4045C23.1322 26.5517 23.1322 26.7087 23.1126 26.8657Z" fill="#FE35F1"/>
<path d="M26.6265 2.94369H19.5896L19.7761 1.30504C19.8644 0.559303 20.4925 0 21.2384 0H24.9777C25.7236 0 26.3517 0.559303 26.44 1.30504L26.6265 2.94369Z" fill="#FE35F1"/>
<path d="M27.5589 12.1278V18.6039C27.5589 19.4183 26.9013 20.0757 26.0867 20.0757H20.1294C19.3148 20.0757 18.6572 19.4183 18.6572 18.6039V12.1278H20.1294C20.944 12.1278 21.6015 11.4606 21.6015 10.6559C21.6015 9.84153 20.944 9.1841 20.1294 9.1841H18.8731L19.5896 2.94348H22.5535L21.6015 11.2839V17.1321H24.6146V11.2839L23.6626 2.94348H26.6265L27.343 9.1841H26.0867C25.2721 9.1841 24.6146 9.84153 24.6146 10.6559C24.6146 11.4606 25.2721 12.1278 26.0867 12.1278H27.5589Z" fill="#FE35F1"/>
<path d="M27.5588 11.1955V12.1276H26.0867C25.2721 12.1276 24.6145 11.4604 24.6145 10.6558C24.6145 9.84138 25.2721 9.18396 26.0867 9.18396H27.3429L27.549 11.0287C27.5588 11.0876 27.5588 11.1464 27.5588 11.1955Z" fill="#FE35F1"/>
<path d="M21.6015 10.6558C21.6015 11.4604 20.944 12.1276 20.1294 12.1276H18.6572V11.1955C18.6572 11.1464 18.6572 11.0876 18.667 11.0287L18.8731 9.18396H20.1294C20.944 9.18396 21.6015 9.84138 21.6015 10.6558Z" fill="#FE35F1"/>
<path d="M32.0145 38.8956C32.0145 39.7002 31.3471 40.3674 30.5424 40.3674H15.6736C14.859 40.3674 14.2014 39.7002 14.2014 38.8956C14.2014 38.0811 14.859 37.4237 15.6736 37.4237H30.5424C31.3471 37.4237 32.0145 38.0811 32.0145 38.8956Z" fill="#FE35F1"/>
</svg>
